# xmcd
#
# Track frame offsets:
#	150
#	22866
#	34493
#	47089
#	62448
#	68577
#	83232
#	94999
#	109914
#	119714
#	140906
#	153482
#	175852
#	195316
#	205473
#	218726
#	231656
#	242919
#	253677
#	279846
#
# Disc length: 3891 seconds
#
# Revision: 1
# Processed by: cddbd v1.5.2PL0 Copyright (c) Steve Scherf et al.
# Submitted via: audiograbber 1.82.02
#
DISCID=2a0f3114
DTITLE=Various Artist - Country Roads Vol 7
DYEAR=1999
DGENRE=Country
TTITLE0=John Denver - Sweet Surrender
TTITLE1=Isaax Payton Sweat - Cotton Eyed Joe
TTITLE2=Glen Campbell - By The Time I Get To Phoenix
TTITLE3=Jean Shepard - Slippin' Away
TTITLE4=Merle Haggard - The Fightin' Side Of Me
TTITLE5=Lynn Anderson - Cry
TTITLE6=Stonewall Jackson - Waterloo
TTITLE7=Everly Brothers - Temptation
TTITLE8=Eddie Jones - Deep In The Heart Of Texas
TTITLE9=Sammys' Saloon - The Bluest Eyes Of Texas
TTITLE10=Anne Murray - I Just Fall In Love Again
TTITLE11=Tennessee - Sweet Home Alabama
TTITLE12=Kenny Rogers - She Believes In Me
TTITLE13=Barbara Mandrell - Kaw Liga
TTITLE14=George Jones - Wedding Bells
TTITLE15=Faron Young - It's Four In The Morning
TTITLE16=Roy Drusky - Blue Eyes Crying In The Rain
TTITLE17=Willie Nelson - Blame It On The Time
TTITLE18=Brenda Lee - Medley 6 Ways
TTITLE19=Guy Mitchell - Singing The Blues
EXTD=
EXTT0=
EXTT1=
EXTT2=
EXTT3=
EXTT4=
EXTT5=
EXTT6=
EXTT7=
EXTT8=
EXTT9=
EXTT10=
EXTT11=
EXTT12=
EXTT13=
EXTT14=
EXTT15=
EXTT16=
EXTT17=
EXTT18=
EXTT19=
PLAYORDER=
